<svg xmlns="http://www.w3.org/2000/svg" width="1400" height="900" viewBox="0 0 1400 900" role="img"><rect width="1400" height="900" fill="#F4EFE5"/><path d="M0 0H1400V12H0Z" fill="#C79A43"/><path d="M1080 0H1400V320Z" fill="#E8DDC7" opacity=".8"/><text x="70" y="82" font-family="IBM Plex Sans, Arial, sans-serif" font-size="19" font-weight="800" fill="#8B6418" text-anchor="start">COMPETITIVE MODEL</text><text x="70" y="144" font-family="IBM Plex Sans, Arial, sans-serif" font-size="42" font-weight="750" fill="#071A32" text-anchor="start">A listing is not always a product family</text><text x="70" y="188" font-family="IBM Plex Sans, Arial, sans-serif" font-size="23" font-weight="500" fill="#52667E" text-anchor="start">Public marketplace records are reconciled before supply concentration or</text><text x="70" y="220" font-family="IBM Plex Sans, Arial, sans-serif" font-size="23" font-weight="500" fill="#52667E" text-anchor="start">differentiation is interpreted.</text><rect x="70" y="290" width="440" height="430" rx="18" fill="#FCFAF5" stroke="#C9B98F" stroke-width="2"/><text x="110" y="340" font-family="IBM Plex Sans, Arial, sans-serif" font-size="22" font-weight="800" fill="#071A32" text-anchor="start">PUBLIC LISTINGS</text><rect x="110" y="375" width="160" height="52" rx="8" fill="#E8DDC7" stroke="#C9B98F"/><text x="135" y="408" font-family="IBM Plex Sans, Arial, sans-serif" font-size="17" font-weight="750" fill="#18304D" text-anchor="start">L01</text><rect x="300" y="375" width="160" height="52" rx="8" fill="#E4E9ED" stroke="#C9B98F"/><text x="325" y="408" font-family="IBM Plex Sans, Arial, sans-serif" font-size="17" font-weight="750" fill="#18304D" text-anchor="start">L02</text><rect x="110" y="450" width="160" height="52" rx="8" fill="#E4E9ED" stroke="#C9B98F"/><text x="135" y="483" font-family="IBM Plex Sans, Arial, sans-serif" font-size="17" font-weight="750" fill="#18304D" text-anchor="start">L03</text><rect x="300" y="450" width="160" height="52" rx="8" fill="#E8DDC7" stroke="#C9B98F"/><text x="325" y="483" font-family="IBM Plex Sans, Arial, sans-serif" font-size="17" font-weight="750" fill="#18304D" text-anchor="start">L04</text><rect x="110" y="525" width="160" height="52" rx="8" fill="#E4E9ED" stroke="#C9B98F"/><text x="135" y="558" font-family="IBM Plex Sans, Arial, sans-serif" font-size="17" font-weight="750" fill="#18304D" text-anchor="start">L05</text><rect x="300" y="525" width="160" height="52" rx="8" fill="#E4E9ED" stroke="#C9B98F"/><text x="325" y="558" font-family="IBM Plex Sans, Arial, sans-serif" font-size="17" font-weight="750" fill="#18304D" text-anchor="start">L06</text><rect x="110" y="600" width="160" height="52" rx="8" fill="#E8DDC7" stroke="#C9B98F"/><text x="135" y="633" font-family="IBM Plex Sans, Arial, sans-serif" font-size="17" font-weight="750" fill="#18304D" text-anchor="start">L07</text><rect x="300" y="600" width="160" height="52" rx="8" fill="#E4E9ED" stroke="#C9B98F"/><text x="325" y="633" font-family="IBM Plex Sans, Arial, sans-serif" font-size="17" font-weight="750" fill="#18304D" text-anchor="start">L08</text><path d="M535 500H665" stroke="#C79A43" stroke-width="5"/><path d="M650 486L665 500L650 514" fill="none" stroke="#C79A43" stroke-width="5"/><rect x="690" y="290" width="640" height="430" rx="18" fill="#071A32"/><text x="735" y="340" font-family="IBM Plex Sans, Arial, sans-serif" font-size="22" font-weight="800" fill="#DFC27D" text-anchor="start">RECONCILED PRODUCT FAMILIES</text><rect x="735" y="380" width="520" height="55" rx="9" fill="#112B49" stroke="#C79A43"/><text x="765" y="415" font-family="IBM Plex Sans, Arial, sans-serif" font-size="18" font-weight="800" fill="#DFC27D" text-anchor="start">F01</text><text x="900" y="415" font-family="IBM Plex Sans, Arial, sans-serif" font-size="18" font-weight="650" fill="#fff" text-anchor="start">4 public listings</text><rect x="735" y="456" width="520" height="55" rx="9" fill="#112B49" stroke="#C79A43"/><text x="765" y="491" font-family="IBM Plex Sans, Arial, sans-serif" font-size="18" font-weight="800" fill="#DFC27D" text-anchor="start">F02</text><text x="900" y="491" font-family="IBM Plex Sans, Arial, sans-serif" font-size="18" font-weight="650" fill="#fff" text-anchor="start">2 public listings</text><rect x="735" y="532" width="520" height="55" rx="9" fill="#112B49" stroke="#C79A43"/><text x="765" y="567" font-family="IBM Plex Sans, Arial, sans-serif" font-size="18" font-weight="800" fill="#DFC27D" text-anchor="start">F03</text><text x="900" y="567" font-family="IBM Plex Sans, Arial, sans-serif" font-size="18" font-weight="650" fill="#fff" text-anchor="start">1 public listing</text><rect x="735" y="608" width="520" height="55" rx="9" fill="#112B49" stroke="#C79A43"/><text x="765" y="643" font-family="IBM Plex Sans, Arial, sans-serif" font-size="18" font-weight="800" fill="#DFC27D" text-anchor="start">F04</text><text x="900" y="643" font-family="IBM Plex Sans, Arial, sans-serif" font-size="18" font-weight="650" fill="#fff" text-anchor="start">1 public listing</text><text x="1010" y="700" font-family="IBM Plex Sans, Arial, sans-serif" font-size="17" font-weight="750" fill="#DFC27D" text-anchor="middle">KEEP SOURCE RECORDS · LINK DUPLICATES · NEVER ERASE PROVENANCE</text><text x="1330" y="850" font-family="IBM Plex Sans, Arial, sans-serif" font-size="17" font-weight="750" fill="#8B6418" text-anchor="end">AMSTERDAM PRODUCT DISCOVERY · EVIDENCE SYSTEM</text></svg>
