<svg xmlns="http://www.w3.org/2000/svg" width="1400" height="900" viewBox="0 0 1400 900" role="img"><rect width="1400" height="900" fill="#F4EFE5"/><path d="M0 0H1400V12H0Z" fill="#C79A43"/><path d="M1070 0H1400V330Z" fill="#E8DDC7" opacity=".78"/><text x="70" y="82" font-family="IBM Plex Sans, Arial, sans-serif" font-size="19" font-weight="800" fill="#8B6418" text-anchor="start">TIMING EVIDENCE</text><text x="70" y="144" font-family="IBM Plex Sans, Arial, sans-serif" font-size="42" font-weight="750" fill="#071A32" text-anchor="start">Leg-by-leg timing and buffer audit</text><text x="70" y="188" font-family="IBM Plex Sans, Arial, sans-serif" font-size="23" font-weight="500" fill="#52667E" text-anchor="start">Map time is not operating time; loading, walking, security and entry all consume the</text><text x="70" y="220" font-family="IBM Plex Sans, Arial, sans-serif" font-size="23" font-weight="500" fill="#52667E" text-anchor="start">service window.</text><rect x="70" y="280" width="1260" height="382" rx="16" fill="#FCFAF5" stroke="#C9B98F" stroke-width="2"/><path d="M70 296Q70 280 86 280H1314Q1330 280 1330 296V350H70Z" fill="#071A32"/><text x="88" y="326" font-family="IBM Plex Sans, Arial, sans-serif" font-size="18" font-weight="750" fill="#fff" text-anchor="start">LEG</text><text x="388" y="326" font-family="IBM Plex Sans, Arial, sans-serif" font-size="18" font-weight="750" fill="#fff" text-anchor="start">PLANNED</text><text x="648" y="326" font-family="IBM Plex Sans, Arial, sans-serif" font-size="18" font-weight="750" fill="#fff" text-anchor="start">OPERATING CHECK</text><text x="1078" y="326" font-family="IBM Plex Sans, Arial, sans-serif" font-size="18" font-weight="750" fill="#fff" text-anchor="start">STATUS</text><text x="88" y="384" font-family="IBM Plex Sans, Arial, sans-serif" font-size="18" font-weight="700" fill="#18304D" text-anchor="start">Hotel → museum</text><path d="M370 350V662" stroke="#DED5C4"/><text x="388" y="384" font-family="IBM Plex Sans, Arial, sans-serif" font-size="18" font-weight="550" fill="#18304D" text-anchor="start">25 min</text><path d="M630 350V662" stroke="#DED5C4"/><text x="648" y="384" font-family="IBM Plex Sans, Arial, sans-serif" font-size="18" font-weight="550" fill="#18304D" text-anchor="start">Load 10 + travel 25</text><path d="M1060 350V662" stroke="#DED5C4"/><text x="1078" y="384" font-family="IBM Plex Sans, Arial, sans-serif" font-size="18" font-weight="550" fill="#9A3E3E" text-anchor="start">HOLD</text><path d="M1330 350V662" stroke="#DED5C4"/><path d="M70 428H1330" stroke="#DED5C4"/><text x="88" y="462" font-family="IBM Plex Sans, Arial, sans-serif" font-size="18" font-weight="700" fill="#18304D" text-anchor="start">Museum entry</text><path d="M370 350V662" stroke="#DED5C4"/><text x="388" y="462" font-family="IBM Plex Sans, Arial, sans-serif" font-size="18" font-weight="550" fill="#18304D" text-anchor="start">10 min</text><path d="M630 350V662" stroke="#DED5C4"/><text x="648" y="462" font-family="IBM Plex Sans, Arial, sans-serif" font-size="18" font-weight="550" fill="#18304D" text-anchor="start">Security 15 + queue</text><path d="M1060 350V662" stroke="#DED5C4"/><text x="1078" y="462" font-family="IBM Plex Sans, Arial, sans-serif" font-size="18" font-weight="550" fill="#18304D" text-anchor="start">REVISE</text><path d="M1330 350V662" stroke="#DED5C4"/><path d="M70 506H1330" stroke="#DED5C4"/><text x="88" y="540" font-family="IBM Plex Sans, Arial, sans-serif" font-size="18" font-weight="700" fill="#18304D" text-anchor="start">Visit duration</text><path d="M370 350V662" stroke="#DED5C4"/><text x="388" y="540" font-family="IBM Plex Sans, Arial, sans-serif" font-size="18" font-weight="550" fill="#18304D" text-anchor="start">75 min</text><path d="M630 350V662" stroke="#DED5C4"/><text x="648" y="540" font-family="IBM Plex Sans, Arial, sans-serif" font-size="18" font-weight="550" fill="#18304D" text-anchor="start">Group pace 90</text><path d="M1060 350V662" stroke="#DED5C4"/><text x="1078" y="540" font-family="IBM Plex Sans, Arial, sans-serif" font-size="18" font-weight="550" fill="#18304D" text-anchor="start">REVISE</text><path d="M1330 350V662" stroke="#DED5C4"/><path d="M70 584H1330" stroke="#DED5C4"/><text x="88" y="618" font-family="IBM Plex Sans, Arial, sans-serif" font-size="18" font-weight="700" fill="#18304D" text-anchor="start">Lunch transfer</text><path d="M370 350V662" stroke="#DED5C4"/><text x="388" y="618" font-family="IBM Plex Sans, Arial, sans-serif" font-size="18" font-weight="550" fill="#18304D" text-anchor="start">20 min</text><path d="M630 350V662" stroke="#DED5C4"/><text x="648" y="618" font-family="IBM Plex Sans, Arial, sans-serif" font-size="18" font-weight="550" fill="#18304D" text-anchor="start">Travel 20 + walk 8</text><path d="M1060 350V662" stroke="#DED5C4"/><text x="1078" y="618" font-family="IBM Plex Sans, Arial, sans-serif" font-size="18" font-weight="550" fill="#18304D" text-anchor="start">CONFIRMED</text><path d="M1330 350V662" stroke="#DED5C4"/><path d="M70 662H1330" stroke="#DED5C4"/><text x="1330" y="850" font-family="IBM Plex Sans, Arial, sans-serif" font-size="17" font-weight="750" fill="#8B6418" text-anchor="end">AHMED MAHMOUD · TOURISM OPERATIONS</text></svg>
