<svg xmlns="http://www.w3.org/2000/svg" width="1200" height="630" viewBox="0 0 1200 630">
  <defs>
    <linearGradient id="bg" x1="0" y1="0" x2="1" y2="1">
      <stop offset="0" stop-color="#071527"/>
      <stop offset="1" stop-color="#123250"/>
    </linearGradient>
    <filter id="shadow" x="-20%" y="-20%" width="140%" height="140%">
      <feDropShadow dx="0" dy="18" stdDeviation="18" flood-color="#000" flood-opacity=".25"/>
    </filter>
  </defs>
  <rect width="1200" height="630" fill="url(#bg)"/>
  <circle cx="1060" cy="80" r="180" fill="#fbbf24" opacity=".12"/>
  <circle cx="90" cy="560" r="220" fill="#38bdf8" opacity=".10"/>
  <rect x="74" y="72" width="1052" height="486" rx="42" fill="#ffffff" opacity=".08" stroke="#ffffff" stroke-opacity=".16"/>
  <text x="94" y="122" font-family="Inter, Arial, sans-serif" font-size="28" font-weight="800" fill="#fbbf24" letter-spacing="4">AHMED QUALITY OPS</text>
  <text x="94" y="210" font-family="Inter, Arial, sans-serif" font-size="64" font-weight="900" fill="#ffffff">RFI · RFQ · RFP · eRFP · NDA</text>
  <text x="94" y="284" font-family="Inter, Arial, sans-serif" font-size="42" font-weight="800" fill="#dbeafe">Tourism Sales Requests</text>
  <text x="94" y="345" font-family="Inter, Arial, sans-serif" font-size="31" font-weight="500" fill="#cbd5e1">How DMC teams turn enquiries, quotations and proposals into trust.</text>
  <g filter="url(#shadow)">
    <rect x="96" y="405" width="178" height="92" rx="24" fill="#fbbf24"/>
    <rect x="302" y="405" width="178" height="92" rx="24" fill="#ffffff"/>
    <rect x="508" y="405" width="178" height="92" rx="24" fill="#ffffff"/>
    <rect x="714" y="405" width="178" height="92" rx="24" fill="#ffffff" opacity=".92"/>
    <rect x="920" y="405" width="138" height="92" rx="24" fill="#ffffff" opacity=".92"/>
  </g>
  <text x="137" y="462" font-family="Inter, Arial, sans-serif" font-size="34" font-weight="900" fill="#071527">RFI</text>
  <text x="343" y="462" font-family="Inter, Arial, sans-serif" font-size="34" font-weight="900" fill="#071527">RFQ</text>
  <text x="549" y="462" font-family="Inter, Arial, sans-serif" font-size="34" font-weight="900" fill="#071527">RFP</text>
  <text x="746" y="462" font-family="Inter, Arial, sans-serif" font-size="34" font-weight="900" fill="#071527">eRFP</text>
  <text x="948" y="462" font-family="Inter, Arial, sans-serif" font-size="34" font-weight="900" fill="#071527">NDA</text>
</svg>